<svg width="354" height="85" viewBox="0 0 354 85" fill="none" xmlns="http://www.w3.org/2000/svg">
<path d="M37.5846 7.7517C46.4512 7.7517 54.2179 9.31837 60.8846 12.4517C67.6179 15.5184 72.8179 19.885 76.4846 25.5517C80.2179 31.1517 82.0846 37.7184 82.0846 45.2517C82.0846 52.785 80.2179 59.385 76.4846 65.0517C72.8179 70.6517 67.6179 75.0184 60.8846 78.1517C54.2179 81.2184 46.4512 82.7517 37.5846 82.7517H0.18457V7.7517H37.5846ZM20.7846 74.0517L10.8846 64.3517H39.1846C43.6512 64.3517 47.5179 63.585 50.7846 62.0517C54.1179 60.4517 56.6846 58.2184 58.4846 55.3517C60.2846 52.485 61.1846 49.1184 61.1846 45.2517C61.1846 41.3184 60.2846 37.9517 58.4846 35.1517C56.6846 32.285 54.1179 30.085 50.7846 28.5517C47.5179 26.9517 43.6512 26.1517 39.1846 26.1517H10.8846L20.7846 16.4517V74.0517ZM124.472 84.3517C117.539 84.3517 111.339 83.085 105.872 80.5517C100.472 78.0184 96.2054 74.485 93.0721 69.9517C89.9387 65.3517 88.3721 60.0184 88.3721 53.9517C88.3721 48.0184 89.8721 42.8184 92.8721 38.3517C95.8721 33.8184 99.9721 30.285 105.172 27.7517C110.439 25.2184 116.372 23.9517 122.972 23.9517C129.839 23.9517 135.672 25.4517 140.472 28.4517C145.339 31.385 149.072 35.5517 151.672 40.9517C154.339 46.3517 155.672 52.7184 155.672 60.0517H104.872V47.7517H144.172L137.472 52.0517C137.205 49.1184 136.472 46.6517 135.272 44.6517C134.072 42.585 132.472 41.0184 130.472 39.9517C128.539 38.885 126.205 38.3517 123.472 38.3517C120.472 38.3517 117.905 38.9517 115.772 40.1517C113.639 41.3517 111.972 43.0184 110.772 45.1517C109.572 47.2184 108.972 49.6517 108.972 52.4517C108.972 56.0517 109.772 59.1184 111.372 61.6517C113.039 64.1184 115.439 66.0184 118.572 67.3517C121.772 68.685 125.672 69.3517 130.272 69.3517C134.472 69.3517 138.639 68.8184 142.772 67.7517C146.972 66.6184 150.772 65.0517 154.172 63.0517V76.0517C150.239 78.7184 145.739 80.785 140.672 82.2517C135.672 83.6517 130.272 84.3517 124.472 84.3517ZM164.41 5.7517H184.91V82.7517H164.41V5.7517ZM196.148 24.7517L206.448 26.7517L216.648 24.7517V82.7517H196.148V24.7517ZM206.348 20.0517C202.815 20.0517 199.948 19.185 197.748 17.4517C195.548 15.6517 194.448 13.2184 194.448 10.1517C194.448 7.15171 195.548 4.75171 197.748 2.95171C199.948 1.1517 202.815 0.251704 206.348 0.251704C210.015 0.251704 212.915 1.1517 215.048 2.95171C217.248 4.75171 218.348 7.15171 218.348 10.1517C218.348 13.2184 217.248 15.6517 215.048 17.4517C212.915 19.185 210.015 20.0517 206.348 20.0517ZM264.486 73.0517L257.486 72.9517L277.286 25.6517H299.086L272.386 82.7517H249.086L222.386 25.6517H244.986L264.486 73.0517ZM302.042 25.6517H322.842L326.242 46.0517V82.7517H305.842V44.8517L302.042 25.6517ZM353.042 24.7517V42.1517C351.042 41.7517 349.142 41.485 347.342 41.3517C345.608 41.1517 344.008 41.0517 342.542 41.0517C339.608 41.0517 336.908 41.6517 334.442 42.8517C331.975 43.985 329.975 45.885 328.442 48.5517C326.975 51.2184 326.242 54.785 326.242 59.2517L322.342 54.4517C322.875 50.3184 323.675 46.4517 324.742 42.8517C325.808 39.185 327.242 35.9517 329.042 33.1517C330.908 30.285 333.208 28.0517 335.942 26.4517C338.675 24.785 342.008 23.9517 345.942 23.9517C347.075 23.9517 348.242 24.0184 349.442 24.1517C350.642 24.285 351.842 24.485 353.042 24.7517Z" fill="#00C2E8"/>
</svg>
